# xmcd CD database file
#
# Track frame offsets:
#	150
#	20587
#	39797
#	57912
#	75575
#	95097
#	112820
#	129795
#	143940
#	165655
#	183685
#
# Disc length: 2598 seconds
#
# Revision: 1
# Processed by: cddbd v1.5.2PL0 Copyright (c) Steve Scherf et al.
# Submitted via: CDex 1.70beta2
#
DISCID=870a240b
DTITLE=Marcy - Dulcimer
DYEAR=1900
DGENRE=Rock
TTITLE0=竹田の子守唄
TTITLE1=すべて忘れても
TTITLE2=More
TTITLE3=ざわめく時へと
TTITLE4=Garage
TTITLE5=Whisky And Woman
TTITLE6=Sweet Hard On
TTITLE7=Out Of Breath
TTITLE8=Your Song
TTITLE9=ありがとう君に
TTITLE10=Pure
EXTD=
EXTT0=
EXTT1=
EXTT2=
EXTT3=
EXTT4=
EXTT5=
EXTT6=
EXTT7=
EXTT8=
EXTT9=
EXTT10=
PLAYORDER=
